<svg width="21" height="20" viewBox="0 0 21 20" fill="none" xmlns="http://www.w3.org/2000/svg">
<path d="M19.8747 0.125H12.583C11.8117 0.127612 11.0691 0.417255 10.4997 0.9375C9.93028 0.417255 9.18761 0.127612 8.41634 0.125H1.12467C0.848407 0.125 0.583455 0.234747 0.388105 0.430097C0.192754 0.625447 0.0830078 0.890399 0.0830078 1.16667V16.7917C0.0830078 17.0679 0.192754 17.3329 0.388105 17.5282C0.583455 17.7236 0.848407 17.8333 1.12467 17.8333H7.12259C7.67051 17.8333 8.20801 18.0562 8.59551 18.4438L9.76322 19.6115C9.77259 19.6208 9.78509 19.624 9.79447 19.6333C9.88405 19.7156 9.98405 19.7885 10.1007 19.8375H10.1028C10.3569 19.9427 10.6424 19.9427 10.8966 19.8375H10.8986C11.0153 19.7885 11.1153 19.7156 11.2049 19.6333C11.2143 19.624 11.2268 19.6208 11.2361 19.6115L12.4038 18.4438C12.7954 18.0545 13.3246 17.8352 13.8768 17.8333H19.8747C20.1509 17.8333 20.4159 17.7236 20.6112 17.5282C20.8066 17.3329 20.9163 17.0679 20.9163 16.7917V1.16667C20.9163 0.890399 20.8066 0.625447 20.6112 0.430097C20.4159 0.234747 20.1509 0.125 19.8747 0.125ZM7.12259 15.75H2.16634V2.20833H8.41634C8.99134 2.20833 9.45801 2.67604 9.45801 3.25V16.4677C8.76786 16.0023 7.95499 15.7525 7.12259 15.75ZM18.833 15.75H13.8768C13.0445 15.75 12.2268 16.0062 11.5413 16.4677V3.25C11.5413 2.67604 12.008 2.20833 12.583 2.20833H18.833V15.75Z" fill="#323232" fill-opacity="0.6"/>
</svg>
