<svg width="22" height="22" viewBox="0 0 22 22" fill="none" xmlns="http://www.w3.org/2000/svg">
<path d="M3.99984 5.41384L0.756836 2.17184L2.17184 0.756836L5.41384 3.99984H20.6558C20.8117 3.99983 20.9654 4.03625 21.1047 4.1062C21.244 4.17616 21.365 4.2777 21.4581 4.40273C21.5511 4.52776 21.6137 4.67282 21.6407 4.82632C21.6678 4.97983 21.6586 5.13753 21.6138 5.28684L19.2138 13.2868C19.1521 13.4929 19.0255 13.6736 18.853 13.802C18.6804 13.9305 18.471 13.9999 18.2558 13.9998H5.99984V15.9998H16.9998V17.9998H4.99984C4.73462 17.9998 4.48027 17.8945 4.29273 17.7069C4.10519 17.5194 3.99984 17.2651 3.99984 16.9998V5.41384ZM5.99984 5.99984V11.9998H17.5118L19.3118 5.99984H5.99984ZM5.49984 21.9998C5.10201 21.9998 4.72048 21.8418 4.43918 21.5605C4.15787 21.2792 3.99984 20.8977 3.99984 20.4998C3.99984 20.102 4.15787 19.7205 4.43918 19.4392C4.72048 19.1579 5.10201 18.9998 5.49984 18.9998C5.89766 18.9998 6.27919 19.1579 6.5605 19.4392C6.8418 19.7205 6.99984 20.102 6.99984 20.4998C6.99984 20.8977 6.8418 21.2792 6.5605 21.5605C6.27919 21.8418 5.89766 21.9998 5.49984 21.9998ZM17.4998 21.9998C17.102 21.9998 16.7205 21.8418 16.4392 21.5605C16.1579 21.2792 15.9998 20.8977 15.9998 20.4998C15.9998 20.102 16.1579 19.7205 16.4392 19.4392C16.7205 19.1579 17.102 18.9998 17.4998 18.9998C17.8977 18.9998 18.2792 19.1579 18.5605 19.4392C18.8418 19.7205 18.9998 20.102 18.9998 20.4998C18.9998 20.8977 18.8418 21.2792 18.5605 21.5605C18.2792 21.8418 17.8977 21.9998 17.4998 21.9998Z" fill="#01B2D4"/>
</svg>
