<?xml version="1.0" encoding="UTF-8"?>
<svg width="24px" height="18px" viewBox="0 0 24 18" version="1.1" xmlns="http://www.w3.org/2000/svg" xmlns:xlink="http://www.w3.org/1999/xlink">
    <!-- Generator: Sketch 59.1 (86144) - https://sketch.com -->
    <title>Combined Shape</title>
    <desc>Created with Sketch.</desc>
    <g id="Symbols" stroke="none" stroke-width="1" fill="none" fill-rule="evenodd">
        <g id="Icons-/-Blog" transform="translate(-12.000000, -15.000000)" fill="#FFFFFF">
            <g id="open-book" transform="translate(12.000000, 15.000000)">
                <path d="M23.1412525,2.91814097 C23.6147071,2.91814097 23.9999192,3.29614097 23.9999192,3.76073128 L23.9999192,3.76073128 L23.9999192,17.1536828 C23.9999192,17.4113128 23.8822626,17.6513392 23.6771717,17.8119119 C23.4713535,17.9728811 23.205899,18.0321938 22.9490101,17.9747841 C20.8916364,17.5147137 17.2816162,16.9798678 13.8571313,17.8026344 C15.8371717,15.9637004 18.6329697,15.6383524 20.3285657,15.6343877 C21.5361616,15.6314537 22.5185455,14.6666696 22.5185455,13.4835066 L22.5185455,13.4835066 L22.5185455,2.91814097 Z M1.48137374,2.91814097 L1.48137374,13.4835066 C1.48137374,14.6666696 2.46383838,15.6314537 3.67135354,15.6343084 C5.36694949,15.6382731 8.16274747,15.9635419 10.1427071,17.8023965 C6.71838384,16.97963 3.10828283,17.5143965 1.05090909,17.9745463 C0.793616162,18.0321145 0.52840404,17.9725639 0.322747475,17.811674 C0.117656566,17.6511013 -1.25233157e-13,17.4111542 -1.25233157e-13,17.1534449 L-1.25233157e-13,17.1534449 L-1.25233157e-13,3.76073128 C-1.25233157e-13,3.29614097 0.385292929,2.91814097 0.858666667,2.91814097 L0.858666667,2.91814097 L1.48137374,2.91814097 Z M3.67127273,0.00388546255 C5.67482828,0.0084845815 9.31894949,0.463797357 11.2152727,3.46051982 C11.2924444,3.58263436 11.3333333,3.73020264 11.3333333,3.88728634 L11.3333333,3.88728634 L11.3333333,17.1121322 C9.02286869,14.7395419 5.67369697,14.330696 3.67466667,14.3260176 C3.20048485,14.3248282 2.81478788,13.9469075 2.81478788,13.4835066 L2.81478788,13.4835066 L2.81478788,0.846634361 C2.81478788,0.620484581 2.90456566,0.408052863 3.06755556,0.248511013 C3.22876768,0.0907136564 3.44226263,0.00388546255 3.66925253,0.00388546255 L3.66925253,0.00388546255 Z M20.3308283,0.0038061674 C20.5575758,0.0038061674 20.7712323,0.0906343612 20.9324444,0.248431718 C21.0954343,0.407973568 21.1852121,0.620405286 21.1852121,0.846555066 L21.1852121,0.846555066 L21.1852121,13.4835066 C21.1852121,13.9468282 20.7995152,14.3247489 20.3254141,14.3259383 C18.3263838,14.3306167 14.9772121,14.7394626 12.6667475,17.1120529 L12.6667475,17.1120529 L12.6667475,3.88728634 C12.6667475,3.73020264 12.7075556,3.58263436 12.7847273,3.46051982 C14.6811313,0.463797357 18.3252525,0.0084845815 20.3287273,0.0038061674 L20.3287273,0.0038061674 Z" id="Combined-Shape"></path>
            </g>
        </g>
    </g>
</svg>