<?xml version="1.0" encoding="UTF-8"?>
<svg width="36px" height="36px" viewBox="0 0 36 36" version="1.1" xmlns="http://www.w3.org/2000/svg" xmlns:xlink="http://www.w3.org/1999/xlink">
    <!-- Generator: sketchtool 59.1 (101010) - https://sketch.com -->
    <title>37497E3F-A22B-4D69-B420-F3A5A7F04216</title>
    <desc>Created with sketchtool.</desc>
    <defs>
        <circle id="path-1" cx="18" cy="18" r="18"></circle>
    </defs>
    <g id="Asset-Artboard-Page" stroke="none" stroke-width="1" fill="none" fill-rule="evenodd">
        <g id="Icons-/-Delete-Circle-Icons-/-Analyse">
            <mask id="mask-2" fill="white">
                <use xlink:href="#path-1"></use>
            </mask>
            <use id="Mask" fill="#01B2D4" xlink:href="#path-1"></use>
            <path d="M23,25 C23.5522847,25 24,25.4477153 24,26 C24,26.5522847 23.5522847,27 23,27 L13,27 C12.4477153,27 12,26.5522847 12,26 C12,25.4477153 12.4477153,25 13,25 L23,25 Z M17.9101562,8.46875 C19.0820371,8.46875 19.9921843,8.74999719 20.640625,9.3125 C21.2890657,9.87500281 21.6132812,10.6692657 21.6132812,11.6953125 C21.6132812,12.2578153 21.4674494,12.8307262 21.1757812,13.4140625 C20.8841131,13.9973988 20.3841181,14.6770795 19.6757812,15.453125 L17.0898438,18.1796875 L21.9804688,18.1796875 L21.9804688,20 L14.1835938,20 L14.1835938,18.453125 L17.8632812,14.53125 C18.3684921,13.9791639 18.7421863,13.4973979 18.984375,13.0859375 C19.2265637,12.6744771 19.3476562,12.283856 19.3476562,11.9140625 C19.3476562,11.4088516 19.2200534,11.0117202 18.9648438,10.7226562 C18.7096341,10.4335923 18.3450545,10.2890625 17.8710938,10.2890625 C17.3606745,10.2890625 16.9583348,10.464842 16.6640625,10.8164062 C16.3697902,11.1679705 16.2226562,11.6302055 16.2226562,12.203125 L13.9570312,12.203125 C13.9570312,11.5104132 14.1223942,10.877607 14.453125,10.3046875 C14.7838558,9.73176797 15.2512991,9.28255371 15.8554688,8.95703125 C16.4596384,8.63150879 17.1445274,8.46875 17.9101562,8.46875 Z" id="Combined-Shape" fill="#FFFFFF" mask="url(#mask-2)"></path>
        </g>
    </g>
</svg>