<?xml version="1.0" encoding="UTF-8"?>
<svg width="40px" height="40px" viewBox="0 0 40 40" version="1.1" xmlns="http://www.w3.org/2000/svg" xmlns:xlink="http://www.w3.org/1999/xlink">
    <!-- Generator: sketchtool 59.1 (101010) - https://sketch.com -->
    <title>D39F59D3-F613-453C-8C5B-DC93B2530765</title>
    <desc>Created with sketchtool.</desc>
    <g id="Asset-Artboard-Page" stroke="none" stroke-width="1" fill="none" fill-rule="evenodd">
        <g id="Icons-/-Add">
            <g id="Buttons/Primary"></g>
            <rect id="Rectangle" fill="#01B2D4" x="0" y="0" width="40" height="40" rx="6"></rect>
            <path d="M20,10 C20.5522847,10 21,10.4477153 21,11 L21,19 L29,19 C29.5522847,19 30,19.4477153 30,20 C30,20.5522847 29.5522847,21 29,21 L20.999,21 L21,29 C21,29.5522847 20.5522847,30 20,30 C19.4477153,30 19,29.5522847 19,29 L18.999,21 L11,21 C10.4477153,21 10,20.5522847 10,20 C10,19.4477153 10.4477153,19 11,19 L19,19 L19,11 C19,10.4477153 19.4477153,10 20,10 Z" id="Combined-Shape" fill="#FFFFFF"></path>
        </g>
    </g>
</svg>