<?xml version="1.0" encoding="UTF-8"?>
<svg width="20px" height="20px" viewBox="0 0 20 20" version="1.1" xmlns="http://www.w3.org/2000/svg" xmlns:xlink="http://www.w3.org/1999/xlink">
    <!-- Generator: Sketch 59.1 (86144) - https://sketch.com -->
    <title>outline-settings-24px</title>
    <desc>Created with Sketch.</desc>
    <g id="Symbols" stroke="none" stroke-width="1" fill="none" fill-rule="evenodd">
        <g id="Icons-/-Settings" transform="translate(-8.000000, -8.000000)">
            <g id="outline-settings-24px" transform="translate(6.000000, 6.000000)">
                <polygon id="Path" points="0 0 24 0 24 24 0 24"></polygon>
                <path d="M19.43,12.98 C19.47,12.66 19.5,12.34 19.5,12 C19.5,11.66 19.47,11.34 19.43,11.02 L21.1317051,9.27250908 C21.4441637,8.95164356 21.5051764,8.4621552 21.2810438,8.07440579 L20.0377544,5.92351513 C19.814189,5.53674692 19.3612088,5.34517972 18.9279782,5.45418613 L16.56,6.05 L16.56,6.05 C16.04,5.65 15.48,5.32 14.87,5.07 L14.2061217,2.72734908 C14.0841709,2.29701669 13.6912871,2 13.2440087,2 L10.7559913,2 C10.3087129,2 9.91582915,2.29701669 9.79387827,2.72734908 L9.13,5.07 L9.13,5.07 C8.52,5.32 7.96,5.66 7.44,6.05 L5.07202179,5.45418613 C4.63879118,5.34517972 4.18581103,5.53674692 3.96224559,5.92351513 L2.71895619,8.07440579 C2.49482358,8.4621552 2.5558363,8.95164356 2.86829486,9.27250908 L4.57,11.02 L4.57,11.02 C4.53,11.34 4.5,11.67 4.5,12 C4.5,12.33 4.53,12.66 4.57,12.98 L2.86829486,14.7274909 C2.5558363,15.0483564 2.49482358,15.5378448 2.71895619,15.9255942 L3.96224559,18.0764849 C4.18581103,18.4632531 4.63879118,18.6548203 5.07202179,18.5458139 L7.44,17.95 L7.44,17.95 C7.96,18.35 8.52,18.68 9.13,18.93 L9.79387827,21.2726509 C9.91582915,21.7029833 10.3087129,22 10.7559913,22 L13.2440087,22 C13.6912871,22 14.0841709,21.7029833 14.2061217,21.2726509 L14.87,18.93 L14.87,18.93 C15.48,18.68 16.04,18.34 16.56,17.95 L18.9279782,18.5458139 C19.3612088,18.6548203 19.814189,18.4632531 20.0377544,18.0764849 L21.2810438,15.9255942 C21.5051764,15.5378448 21.4441637,15.0483564 21.1317051,14.7274909 L19.43,12.98 L19.43,12.98 Z M12,8 C9.79,8 8,9.79 8,12 C8,14.21 9.79,16 12,16 C14.21,16 16,14.21 16,12 C16,9.79 14.21,8 12,8 Z M12,14 C10.9,14 10,13.1 10,12 C10,10.9 10.9,10 12,10 C13.1,10 14,10.9 14,12 C14,13.1 13.1,14 12,14 Z" id="Shape" fill="#01B2D4"></path>
            </g>
        </g>
    </g>
</svg>