<svg width="17" height="20" viewBox="0 0 17 20" fill="none" xmlns="http://www.w3.org/2000/svg">
<path d="M3.49405 0H11.5858C13.2706 1.67969 14.9565 3.3582 16.6409 5.03867C16.6405 9.30898 16.6417 13.5797 16.6401 17.85C16.6472 18.4461 16.3917 19.0398 15.9483 19.4395C15.5741 19.7867 15.0714 19.9848 14.562 20H3.49913C2.68116 19.984 1.90186 19.4547 1.59249 18.6965C1.34327 18.1363 1.44639 17.5117 1.42452 16.9188C1.25772 16.9172 1.08546 16.9242 0.926472 16.8648C0.646003 16.7668 0.427254 16.5105 0.376472 16.2172C0.352644 16.073 0.358894 15.9266 0.358894 15.7812C0.359676 14.1535 0.358113 12.5258 0.359285 10.8977C0.351472 10.6273 0.469832 10.3555 0.683894 10.1879C0.888582 10.0141 1.1671 9.98867 1.42491 9.99883C1.42491 7.39492 1.42452 4.79102 1.42491 2.18711C1.42257 1.89453 1.46944 1.6 1.58194 1.32891C1.88585 0.560547 2.66749 0.0171875 3.49405 0ZM2.85577 1.69492C2.74444 1.8625 2.72257 2.06875 2.72803 2.26523C2.72921 4.84336 2.72803 7.42148 2.72842 9.99961C6.046 10.0004 9.36319 10 12.6808 10C12.8991 9.99922 13.1312 9.98555 13.33 10.093C13.6269 10.2383 13.8155 10.5645 13.8034 10.8941C13.8038 12.6145 13.8058 14.3352 13.8022 16.0559C13.8058 16.3863 13.6011 16.7059 13.2987 16.8395C13.1062 16.9324 12.8866 16.9172 12.6792 16.918C9.36241 16.9176 6.04522 16.9176 2.72842 16.918C2.72921 17.2301 2.72647 17.5422 2.7296 17.8547C2.72999 18.0484 2.79249 18.2437 2.91827 18.3934C3.0835 18.6008 3.35225 18.7062 3.61436 18.6961C7.24639 18.6953 10.8788 18.698 14.5108 18.6949C14.9593 18.7047 15.355 18.2996 15.3358 17.852C15.3284 13.7527 15.3163 9.65352 15.3062 5.5543C14.4308 5.55703 13.5558 5.55938 12.6804 5.56289C12.4937 5.55938 12.3038 5.54883 12.1265 5.48711C11.6663 5.34453 11.2905 4.95898 11.1608 4.49531C11.0925 4.26641 11.0964 4.02461 11.0976 3.78867C11.0976 2.9582 11.0976 2.12812 11.0972 1.29766C8.59014 1.3 6.08311 1.30156 3.57608 1.30547C3.28975 1.30078 3.0046 1.44766 2.85577 1.69492ZM3.44288 11.7309C3.16358 11.7316 2.88546 11.7598 2.60889 11.7973C2.60889 12.9836 2.6085 14.1699 2.60928 15.3562C2.87842 15.3562 3.14757 15.3566 3.41671 15.3562C3.41749 14.9262 3.41631 14.4961 3.4171 14.0664C3.91671 14.1094 4.47491 14.0531 4.86202 13.7012C5.32491 13.2574 5.31553 12.3871 4.78819 11.9961C4.40147 11.7191 3.89913 11.7137 3.44288 11.7309ZM5.72061 11.7973C5.72061 12.9785 5.71983 14.1594 5.721 15.3406C6.00889 15.3758 6.29835 15.3863 6.58819 15.391C7.12256 15.384 7.68663 15.3324 8.15069 15.0426C8.56202 14.7875 8.81124 14.3277 8.87998 13.8566C8.94483 13.398 8.91006 12.9 8.66045 12.498C8.43819 12.1363 8.04795 11.9086 7.64288 11.809C7.01084 11.6738 6.35694 11.7238 5.72061 11.7973ZM9.44873 11.7496C9.44834 12.9516 9.44834 14.1535 9.44873 15.3559C9.721 15.3566 9.99327 15.3562 10.2659 15.3559C10.2667 14.8723 10.2655 14.3891 10.2663 13.9055C10.6983 13.9043 11.1304 13.9055 11.5624 13.9047C11.5624 13.684 11.5624 13.4633 11.5624 13.2426C11.1304 13.2418 10.6983 13.2426 10.2663 13.2418C10.2663 12.9668 10.2659 12.6922 10.2663 12.4172C10.7284 12.4164 11.1905 12.4172 11.653 12.4168C11.653 12.1941 11.653 11.9719 11.6526 11.7496C10.9179 11.7492 10.1835 11.7492 9.44873 11.7496Z" fill="white"/>
</svg>
